<?xml version="1.0" standalone="no"?>
<!DOCTYPE svg PUBLIC "-//W3C//DTD SVG 20010904//EN"
 "http://www.w3.org/TR/2001/REC-SVG-20010904/DTD/svg10.dtd">
<svg version="1.0" xmlns="http://www.w3.org/2000/svg"
 width="414.000000pt" height="454.000000pt" viewBox="0 0 414.000000 454.000000"
 preserveAspectRatio="xMidYMid meet">

<g transform="translate(0.000000,454.000000) scale(0.100000,-0.100000)"
fill="#000000" stroke="none">
<path d="M1958 3853 c6 -2 18 -2 25 0 6 3 1 5 -13 5 -14 0 -19 -2 -12 -5z"/>
<path d="M2078 3853 c23 -2 59 -2 80 0 20 2 1 4 -43 4 -44 0 -61 -2 -37 -4z"/>
<path d="M1868 3843 c12 -2 30 -2 40 0 9 3 -1 5 -23 4 -22 0 -30 -2 -17 -4z"/>
<path d="M2290 3835 c98 -15 128 -17 86 -5 -16 5 -61 11 -100 14 l-71 5 85
-14z"/>
<path d="M1808 3833 c6 -2 18 -2 25 0 6 3 1 5 -13 5 -14 0 -19 -2 -12 -5z"/>
<path d="M1758 3823 c6 -2 18 -2 25 0 6 3 1 5 -13 5 -14 0 -19 -2 -12 -5z"/>
<path d="M2418 3813 c7 -3 16 -2 19 1 4 3 -2 6 -13 5 -11 0 -14 -3 -6 -6z"/>
<path d="M1650 3800 c-18 -12 -2 -12 25 0 13 6 15 9 5 9 -8 0 -22 -4 -30 -9z"/>
<path d="M2490 3794 c25 -7 50 -13 55 -13 18 1 -59 27 -80 28 -11 0 0 -7 25
-15z"/>
<path d="M1523 3753 c-18 -9 -33 -20 -33 -24 0 -7 58 21 79 38 12 9 -18 0 -46
-14z"/>
<path d="M2600 3762 c8 -5 26 -13 40 -16 17 -5 20 -4 10 2 -8 5 -26 13 -40 16
-17 5 -20 4 -10 -2z"/>
<path d="M2770 3687 c266 -133 518 -365 654 -599 16 -27 30 -48 33 -48 3 0 -8
21 -23 48 -97 167 -294 376 -463 491 -90 62 -272 161 -295 161 -6 0 36 -24 94
-53z"/>
<path d="M1382 3699 c-76 -30 -60 -32 23 -4 39 13 61 24 50 24 -11 0 -44 -9
-73 -20z"/>
<path d="M1290 3655 c-14 -8 -20 -14 -14 -15 5 0 19 7 30 15 24 18 16 19 -16
0z"/>
<path d="M1213 3610 c-18 -11 -33 -22 -33 -25 0 -2 16 5 35 16 19 12 35 23 35
25 0 6 -3 5 -37 -16z"/>
<path d="M1085 3517 c-119 -95 -237 -220 -317 -334 -48 -71 -24 -48 38 35 75
101 201 230 292 299 64 50 79 63 69 63 -1 0 -38 -29 -82 -63z"/>
<path d="M2610 3414 c0 -5 7 -18 15 -28 12 -16 15 -17 15 -4 0 8 -7 21 -15 28
-8 7 -15 9 -15 4z"/>
<path d="M2677 3403 c-12 -12 -7 -22 8 -17 8 4 15 10 15 15 0 11 -14 12 -23 2z"/>
<path d="M2330 3379 c0 -11 5 -17 10 -14 6 3 10 13 10 21 0 8 -4 14 -10 14 -5
0 -10 -9 -10 -21z"/>
<path d="M2448 3394 c-8 -8 3 -44 13 -44 5 0 9 11 9 25 0 24 -10 32 -22 19z"/>
<path d="M2410 3379 c0 -7 -10 -9 -25 -5 -24 6 -26 4 -24 -26 1 -18 -2 -42 -6
-53 -7 -20 -6 -20 9 -1 9 11 16 26 16 33 0 7 5 13 11 13 12 0 38 29 39 43 0 4
-4 7 -10 7 -5 0 -10 -5 -10 -11z"/>
<path d="M2550 3360 c0 -16 5 -30 10 -30 6 0 10 14 10 30 0 17 -4 30 -10 30
-5 0 -10 -13 -10 -30z"/>
<path d="M2481 3343 c-1 -7 -10 -13 -20 -13 -30 0 -35 -19 -6 -26 32 -8 22
-26 -13 -21 -18 3 -27 10 -26 21 3 29 -10 17 -34 -32 -16 -32 -21 -56 -17 -74
5 -20 2 -29 -13 -37 -16 -8 -19 -19 -16 -68 3 -77 2 -73 19 -73 19 0 19 -29 0
-67 -30 -59 -60 -67 -33 -8 12 28 3 48 -12 25 -8 -13 -10 -12 -10 3 0 34 -17
16 -18 -20 -1 -20 -5 -39 -10 -42 -4 -3 -16 -17 -26 -31 l-18 -25 6 35 c3 19
13 40 21 46 16 12 21 54 6 54 -4 0 -16 -17 -24 -37 l-17 -38 6 38 c5 34 3 37
-20 37 -30 0 -42 -16 -26 -35 26 -31 -16 -124 -57 -125 -16 0 -17 -30 -2 -30
7 0 9 -10 5 -27 -4 -16 -7 -39 -6 -53 0 -18 -3 -21 -12 -12 -9 9 -9 17 0 37
15 32 16 56 2 35 -5 -8 -10 -10 -10 -5 -1 6 -8 -6 -17 -25 l-16 -35 -7 30 c-3
17 -12 29 -18 27 -7 -1 -15 5 -18 13 -11 28 -23 15 -21 -22 1 -21 8 -38 16
-41 10 -3 12 0 8 12 -4 9 -2 16 3 16 6 0 10 -9 10 -20 0 -16 -7 -20 -34 -20
-19 0 -37 6 -39 13 -4 7 -6 6 -6 -5 -1 -9 -15 -21 -33 -27 -86 -30 -142 -105
-140 -188 1 -53 15 -93 32 -93 5 0 2 12 -6 28 -29 56 -13 142 34 185 29 27
150 67 202 67 57 0 117 -34 141 -79 10 -19 23 -39 29 -45 5 -5 10 -41 10 -78
0 -70 8 -85 25 -46 7 16 22 25 47 29 46 7 71 27 65 50 -4 16 -3 17 17 4 24
-16 36 -11 36 14 0 9 18 25 40 35 24 12 40 26 40 37 0 10 14 27 30 39 27 19
45 61 20 45 -9 -6 -15 29 -11 63 1 6 -3 12 -9 12 -14 0 -15 -14 -6 -63 5 -29
-8 -43 -41 -45 -23 -1 -23 -1 -3 21 19 20 26 37 15 37 -3 0 -28 -23 -55 -51
-41 -41 -48 -46 -40 -25 5 15 19 36 30 48 38 41 20 49 -20 9 -22 -22 -40 -45
-40 -51 0 -5 -4 -10 -10 -10 -26 0 -6 51 40 101 42 46 61 79 46 79 -2 0 -12 3
-20 6 -12 5 -15 2 -10 -9 3 -10 -8 -29 -32 -51 -39 -37 -61 -41 -29 -6 12 13
15 27 11 45 -4 14 -2 25 4 25 5 0 10 -7 10 -15 0 -8 4 -15 9 -15 5 0 8 18 6
40 -3 46 7 50 39 15 13 -14 28 -25 35 -25 6 0 11 -5 11 -11 0 -8 5 -7 15 1 11
9 12 15 5 20 -12 8 -4 36 19 65 8 11 -3 3 -26 -19 -40 -37 -42 -37 -52 -18
-15 28 -14 32 7 32 9 0 22 11 29 25 6 14 7 23 2 19 -5 -3 -9 2 -9 10 0 9 18
33 40 53 22 21 40 44 40 52 0 11 -4 9 -15 -5 -14 -18 -14 -18 -15 5 0 16 -4
21 -15 17 -9 -3 -15 0 -15 10 0 10 6 14 15 10 10 -3 15 1 15 11 0 9 12 32 26
51 23 29 24 33 8 30 -11 -2 -19 -8 -19 -14 0 -6 -7 -18 -16 -27 -15 -15 -16
-14 -14 14 1 20 14 41 34 60 18 16 31 35 28 42 -2 6 3 17 11 23 8 6 13 16 11
23 -3 8 -14 4 -32 -13 -16 -14 -25 -31 -22 -36 3 -6 1 -10 -4 -10 -6 0 -11 -7
-11 -15 0 -8 -7 -15 -16 -15 -8 0 -12 4 -9 10 13 21 13 52 0 88 -7 20 -14 31
-14 25z m-64 -130 c-9 -9 -20 -13 -24 -9 -4 4 1 14 11 22 25 18 35 8 13 -13z
m-17 -77 c0 -7 -6 -19 -14 -25 -19 -16 -32 5 -16 24 16 19 30 19 30 1z m80
-65 c0 -12 -20 -25 -27 -18 -7 7 6 27 18 27 5 0 9 -4 9 -9z m-20 -45 c0 -2 -7
-7 -16 -10 -8 -3 -12 -2 -9 4 6 10 25 14 25 6z m-250 -56 c0 -5 -5 -10 -11
-10 -5 0 -7 5 -4 10 3 6 8 10 11 10 2 0 4 -4 4 -10z m174 -59 c3 -4 -3 -16
-14 -26 -11 -10 -17 -21 -15 -25 6 -9 -35 -21 -46 -14 -8 4 50 71 63 73 4 1 9
-3 12 -8z m-177 -89 c-8 -10 -17 -24 -20 -32 -4 -12 -6 -12 -6 2 -1 9 -4 24
-8 34 -4 11 -3 15 5 10 6 -3 13 -2 17 4 4 6 11 8 16 4 7 -4 5 -12 -4 -22z
m103 -6 c0 -3 -4 -8 -10 -11 -5 -3 -10 -1 -10 4 0 6 5 11 10 11 6 0 10 -2 10
-4z m-107 -111 c-3 -9 -8 -14 -10 -11 -3 3 -2 9 2 15 9 16 15 13 8 -4z m249
-77 c-7 -7 -12 -8 -12 -2 0 14 12 26 19 19 2 -3 -1 -11 -7 -17z"/>
<path d="M2330 3326 c0 -9 5 -16 10 -16 6 0 10 4 10 9 0 6 -4 13 -10 16 -5 3
-10 -1 -10 -9z"/>
<path d="M2605 3330 c-3 -5 -1 -10 6 -10 8 0 8 -4 -1 -15 -14 -16 -8 -31 8
-21 16 10 21 56 6 56 -7 0 -16 -4 -19 -10z"/>
<path d="M2753 3286 l-21 -24 28 2 c16 1 32 5 37 9 4 5 0 5 -10 1 -20 -7 -23
6 -5 24 7 7 8 12 2 12 -6 0 -20 -11 -31 -24z"/>
<path d="M2638 3271 c-28 -16 -37 -31 -18 -31 6 0 10 5 10 11 0 5 4 8 8 5 11
-7 35 10 31 21 -2 5 -16 2 -31 -6z"/>
<path d="M2700 3255 c0 -8 4 -15 10 -15 5 0 7 7 4 15 -4 8 -8 15 -10 15 -2 0
-4 -7 -4 -15z"/>
<path d="M2580 3214 c0 -8 5 -12 10 -9 6 3 10 10 10 16 0 5 -4 9 -10 9 -5 0
-10 -7 -10 -16z"/>
<path d="M2640 3203 c-27 -11 -63 -43 -76 -69 -17 -31 -17 -34 -4 -34 6 0 15
11 20 25 5 14 13 25 18 25 5 0 24 14 42 30 32 29 32 35 0 23z"/>
<path d="M3212 3184 c-12 -8 -22 -21 -22 -29 0 -27 41 -93 60 -98 11 -3 20
-12 20 -21 0 -23 42 -20 74 5 20 16 26 28 24 57 -1 36 -1 36 -5 5 -2 -17 -11
-37 -19 -44 -12 -10 -13 -9 -7 7 6 16 5 17 -9 6 -21 -17 -35 3 -18 23 10 13 8
15 -18 15 -21 0 -35 8 -46 25 -25 37 -12 48 48 42 46 -6 49 -5 32 8 -26 20
-86 19 -114 -1z"/>
<path d="M774 3146 c-40 -40 -44 -80 -13 -120 22 -27 69 -35 99 -16 8 5 12 10
8 10 -4 0 -2 14 3 30 7 19 18 30 30 30 10 0 19 4 19 8 0 13 -23 32 -39 32 -8
0 -11 -3 -8 -6 4 -4 -3 -16 -16 -26 -12 -11 -33 -28 -45 -39 -34 -29 -52 -18
-52 32 0 33 6 47 31 70 17 16 28 29 24 29 -4 0 -22 -15 -41 -34z"/>
<path d="M859 3166 c18 -6 39 -20 47 -31 14 -18 14 -18 14 3 0 25 -28 42 -67
41 l-28 -1 34 -12z"/>
<path d="M2665 3160 c-3 -5 -2 -10 4 -10 5 0 13 5 16 10 3 6 2 10 -4 10 -5 0
-13 -4 -16 -10z"/>
<path d="M692 3063 c-197 -339 -259 -770 -167 -1156 108 -452 396 -825 807
-1042 261 -137 571 -201 860 -177 297 25 588 133 820 304 114 84 291 265 364
373 65 95 88 135 80 135 -3 0 -12 -13 -20 -28 -8 -16 -40 -62 -71 -103 -46
-61 -60 -73 -81 -71 -13 2 -24 -1 -24 -7 0 -6 -13 -11 -29 -11 -16 0 -31 -6
-34 -12 -3 -8 -16 0 -35 22 -25 29 -33 33 -44 22 -11 -11 -10 -14 2 -22 8 -5
11 -12 8 -16 -4 -3 -21 10 -38 29 -22 25 -36 34 -51 30 -16 -5 -20 -12 -16
-32 4 -21 3 -23 -6 -10 -17 23 -40 28 -53 11 -14 -19 -32 -8 -46 26 l-11 27
-6 -25 c-5 -17 -9 -21 -15 -12 -4 6 -15 12 -24 12 -10 0 -24 9 -32 20 -19 26
-34 26 -20 0 10 -18 9 -19 -16 -10 -29 11 -44 6 -44 -16 0 -12 -4 -13 -22 -2
-13 7 -28 11 -34 10 -6 -1 -19 9 -28 24 -10 14 -27 37 -39 50 -12 14 -24 35
-27 47 -3 12 -16 24 -28 27 -13 3 -23 8 -23 12 0 4 -2 15 -6 23 -3 9 -4 17 -2
19 11 8 100 46 109 46 5 0 10 4 10 9 0 5 9 12 19 16 10 3 21 15 24 25 5 21 1
20 -43 -12 -38 -28 -156 -58 -250 -64 -95 -6 -179 14 -224 53 -63 55 -120 62
-206 27 -85 -35 -227 -64 -316 -64 -95 0 -256 41 -298 77 -49 41 -124 139
-131 173 -4 16 -11 30 -16 30 -6 0 -7 4 -4 10 10 15 -108 1 -213 -26 -105 -27
-116 -28 -107 -14 9 15 159 57 252 72 45 7 80 14 78 16 -2 3 0 13 6 24 5 10
12 39 13 63 3 41 1 46 -21 51 -14 4 -96 5 -184 2 -87 -3 -159 -2 -159 2 0 16
150 32 264 29 75 -3 122 0 124 6 2 6 8 15 14 22 5 7 7 17 4 22 -4 6 3 15 14
21 11 6 18 15 15 21 -4 5 2 9 11 9 28 0 4 16 -51 34 -65 20 -215 46 -274 46
-25 0 -53 5 -61 10 -46 30 226 -2 340 -40 84 -28 111 -30 78 -6 -14 10 -15 15
-5 26 7 7 8 10 2 8 -5 -3 -15 0 -22 7 -10 11 -10 15 0 18 7 3 2 6 -11 6 -12 1
-31 6 -41 13 -19 12 -19 12 2 23 14 7 29 8 40 3 9 -5 17 -6 17 -4 0 10 -57 35
-64 29 -3 -4 -6 -1 -6 5 0 7 -11 12 -24 12 -12 0 -44 11 -70 25 -25 13 -46 23
-46 20 0 -2 -18 2 -41 10 -23 8 -46 12 -51 9 -6 -4 -8 2 -6 12 3 15 10 18 38
16 33 -4 38 6 8 13 -55 13 -73 28 -46 37 8 3 8 10 -4 26 -8 12 -18 19 -21 15
-4 -3 -7 -1 -7 5 0 6 -13 13 -30 17 -16 4 -30 11 -30 16 0 5 -5 9 -11 9 -8 0
-8 -4 0 -14 9 -11 9 -16 0 -22 -8 -4 4 -15 32 -30 34 -18 39 -23 22 -24 -13 0
-23 5 -23 11 0 5 -8 9 -17 8 -35 -3 -42 1 -38 23 5 23 -19 47 -47 48 -10 0
-18 4 -18 9 0 4 16 6 37 4 32 -3 35 -2 23 12 -7 8 -15 13 -18 10 -3 -3 -11 0
-17 5 -7 6 -24 11 -39 12 -14 1 -26 8 -26 15 0 7 7 10 15 7 8 -4 15 -1 15 5 0
13 -20 23 -53 26 -36 4 -37 4 -37 20 0 8 -6 15 -14 15 -9 0 -12 7 -9 20 4 16
-2 21 -38 27 -42 7 -43 7 -14 13 17 4 38 3 48 -2 10 -5 17 -5 17 2 0 5 -7 10
-15 10 -9 0 -18 7 -21 15 -7 17 -46 20 -75 5 -34 -19 -23 20 49 164 38 75 67
136 66 136 -2 0 -21 -30 -42 -67z m198 -493 c0 -5 -7 -7 -15 -4 -8 4 -15 8
-15 10 0 2 7 4 15 4 8 0 15 -4 15 -10z m280 -195 c7 -8 8 -15 2 -15 -5 0 -15
7 -22 15 -7 8 -8 15 -2 15 5 0 15 -7 22 -15z m1355 -875 c3 -5 1 -10 -4 -10
-6 0 -11 5 -11 10 0 6 2 10 4 10 3 0 8 -4 11 -10z"/>
<path d="M2600 3090 c0 -5 5 -10 10 -10 6 0 10 5 10 10 0 6 -4 10 -10 10 -5 0
-10 -4 -10 -10z"/>
<path d="M2075 3020 c-4 -12 -5 -24 -2 -27 3 -2 8 5 12 17 4 12 5 24 2 27 -3
2 -8 -5 -12 -17z"/>
<path d="M2549 3010 c-33 -29 -34 -29 -14 -44 23 -18 35 -20 35 -6 0 6 -7 10
-16 10 -13 0 -11 7 10 35 33 43 29 44 -15 5z"/>
<path d="M3477 2995 c9 -19 18 -33 21 -31 4 5 -26 66 -33 66 -3 0 3 -16 12
-35z"/>
<path d="M2508 2943 c7 -3 16 -2 19 1 4 3 -2 6 -13 5 -11 0 -14 -3 -6 -6z"/>
<path d="M3506 2937 c3 -10 9 -15 12 -12 3 3 0 11 -7 18 -10 9 -11 8 -5 -6z"/>
<path d="M2096 2917 c-3 -6 -9 -26 -14 -44 -8 -24 -7 -34 3 -43 11 -9 16 -5
23 22 6 18 13 40 16 49 5 10 1 19 -9 23 -9 3 -17 0 -19 -7z"/>
<path d="M2031 2904 c0 -11 3 -14 6 -6 3 7 2 16 -1 19 -3 4 -6 -2 -5 -13z"/>
<path d="M2547 2899 c-10 -11 -17 -25 -15 -30 2 -5 11 4 21 21 21 35 19 39 -6
9z"/>
<path d="M3520 2905 c0 -5 5 -17 10 -25 5 -8 10 -10 10 -5 0 6 -5 17 -10 25
-5 8 -10 11 -10 5z"/>
<path d="M2030 2850 c0 -5 5 -10 10 -10 6 0 10 5 10 10 0 6 -4 10 -10 10 -5 0
-10 -4 -10 -10z"/>
<path d="M3546 2840 c3 -14 11 -32 16 -40 6 -10 7 -7 2 10 -3 14 -11 32 -16
40 -6 10 -7 7 -2 -10z"/>
<path d="M2515 2810 c-3 -5 1 -10 9 -10 9 0 16 5 16 10 0 6 -4 10 -9 10 -6 0
-13 -4 -16 -10z"/>
<path d="M2564 2755 c-16 -12 -16 -14 -3 -15 9 0 22 7 29 15 16 19 0 19 -26 0z"/>
<path d="M2620 2739 c0 -5 5 -7 10 -4 6 3 10 8 10 11 0 2 -4 4 -10 4 -5 0 -10
-5 -10 -11z"/>
<path d="M2575 2719 c-11 -17 1 -21 15 -4 8 9 8 15 2 15 -6 0 -14 -5 -17 -11z"/>
<path d="M3592 2710 c0 -8 4 -26 8 -40 6 -20 8 -21 8 -5 0 11 -3 29 -8 40 -5
12 -8 14 -8 5z"/>
<path d="M985 2630 c10 -11 20 -20 23 -20 3 0 -3 9 -13 20 -10 11 -20 20 -23
20 -3 0 3 -9 13 -20z"/>
<path d="M3611 2624 c0 -11 3 -14 6 -6 3 7 2 16 -1 19 -3 4 -6 -2 -5 -13z"/>
<path d="M1210 2600 c0 -5 5 -10 11 -10 5 0 7 5 4 10 -3 6 -8 10 -11 10 -2 0
-4 -4 -4 -10z"/>
<path d="M2577 2566 c-10 -8 -14 -17 -9 -20 5 -3 17 3 27 14 21 23 9 26 -18 6z"/>
<path d="M3632 2525 c0 -16 2 -22 5 -12 2 9 2 23 0 30 -3 6 -5 -1 -5 -18z"/>
<path d="M2368 2489 c-10 -10 -18 -23 -18 -29 0 -5 -4 -10 -10 -10 -5 0 -10
-5 -10 -10 0 -6 11 -3 25 6 13 8 29 13 34 10 14 -9 23 11 16 34 -8 24 -15 24
-37 -1z"/>
<path d="M3643 2450 c0 -25 2 -35 4 -22 2 12 2 32 0 45 -2 12 -4 2 -4 -23z"/>
<path d="M1205 2450 c3 -5 10 -10 16 -10 5 0 9 5 9 10 0 6 -7 10 -16 10 -8 0
-12 -4 -9 -10z"/>
<path d="M1255 2400 c3 -5 11 -10 16 -10 6 0 7 5 4 10 -3 6 -11 10 -16 10 -6
0 -7 -4 -4 -10z"/>
<path d="M3654 2270 c0 -74 1 -105 3 -67 2 37 2 97 0 135 -2 37 -3 6 -3 -68z"/>
<path d="M2893 2273 c3 -4 -24 -9 -58 -10 -41 -1 -79 -9 -107 -22 -24 -12 -34
-19 -23 -16 17 4 16 2 -5 -16 l-25 -21 40 6 c22 3 69 12 105 20 36 9 116 18
178 22 96 6 112 10 110 23 -3 13 -22 16 -111 19 -60 1 -106 -1 -104 -5z"/>
<path d="M3643 2090 c0 -25 2 -35 4 -22 2 12 2 32 0 45 -2 12 -4 2 -4 -23z"/>
<path d="M2800 2083 c27 -10 30 -28 7 -35 -19 -5 145 -13 275 -12 26 0 44 -4
42 -8 -3 -4 6 -8 20 -8 33 0 35 27 4 39 -40 15 -188 31 -277 30 -47 0 -79 -3
-71 -6z"/>
<path d="M3632 2015 c0 -16 2 -22 5 -12 2 9 2 23 0 30 -3 6 -5 -1 -5 -18z"/>
<path d="M3611 1914 c0 -11 3 -14 6 -6 3 7 2 16 -1 19 -3 4 -6 -2 -5 -13z"/>
<path d="M2855 1890 c-3 -5 0 -10 7 -10 10 0 10 -2 -1 -9 -10 -6 4 -13 45 -21
32 -6 99 -23 147 -37 49 -14 91 -22 94 -19 14 14 -11 35 -68 56 -65 25 -103
29 -154 17 l-30 -7 29 13 28 14 -23 6 c-35 10 -67 8 -74 -3z"/>
<path d="M3596 1859 c-8 -42 0 -50 9 -9 4 17 5 34 2 36 -2 3 -7 -10 -11 -27z"/>
<path d="M3551 1719 c-6 -18 -9 -34 -7 -36 2 -2 9 10 15 28 6 18 9 34 7 36 -2
2 -9 -10 -15 -28z"/>
<path d="M3526 1655 c-9 -26 -7 -32 5 -12 6 10 9 21 6 23 -2 3 -7 -2 -11 -11z"/>
<path d="M3506 1603 c-6 -14 -5 -15 5 -6 7 7 10 15 7 18 -3 3 -9 -2 -12 -12z"/>
<path d="M3477 1545 c-9 -19 -15 -35 -12 -35 7 0 37 61 33 66 -3 2 -12 -12
-21 -31z"/>
<path d="M2610 1448 c0 -9 5 -20 11 -23 17 -11 18 -2 3 19 -12 17 -14 17 -14
4z"/>
</g>
</svg>
