<?xml version="1.0" standalone="no"?>
<!DOCTYPE svg PUBLIC "-//W3C//DTD SVG 20010904//EN"
 "http://www.w3.org/TR/2001/REC-SVG-20010904/DTD/svg10.dtd">
<svg version="1.0" xmlns="http://www.w3.org/2000/svg"
 width="414.000000pt" height="454.000000pt" viewBox="0 0 414.000000 454.000000"
 preserveAspectRatio="xMidYMid meet">

<g transform="translate(0.000000,454.000000) scale(0.100000,-0.100000)"
fill="#000000" stroke="none">
<path d="M2078 3863 c17 -2 47 -2 65 0 17 2 3 4 -33 4 -36 0 -50 -2 -32 -4z"/>
<path d="M1883 3853 c15 -2 37 -2 50 0 12 2 0 4 -28 4 -27 0 -38 -2 -22 -4z"/>
<path d="M2003 3853 c9 -2 23 -2 30 0 6 3 -1 5 -18 5 -16 0 -22 -2 -12 -5z"/>
<path d="M2208 3853 c12 -2 30 -2 40 0 9 3 -1 5 -23 4 -22 0 -30 -2 -17 -4z"/>
<path d="M1828 3843 c7 -3 16 -2 19 1 4 3 -2 6 -13 5 -11 0 -14 -3 -6 -6z"/>
<path d="M2325 3841 c22 -4 56 -10 75 -14 34 -6 34 -6 -5 8 -22 7 -56 13 -75
13 l-35 -1 40 -6z"/>
<path d="M1778 3833 c7 -3 16 -2 19 1 4 3 -2 6 -13 5 -11 0 -14 -3 -6 -6z"/>
<path d="M1728 3823 c7 -3 16 -2 19 1 4 3 -2 6 -13 5 -11 0 -14 -3 -6 -6z"/>
<path d="M1688 3813 c7 -3 16 -2 19 1 4 3 -2 6 -13 5 -11 0 -14 -3 -6 -6z"/>
<path d="M2448 3813 c7 -3 16 -2 19 1 4 3 -2 6 -13 5 -11 0 -14 -3 -6 -6z"/>
<path d="M1581 3785 c-35 -13 -68 -29 -75 -35 -6 -7 2 -6 19 3 17 8 46 18 65
22 33 7 86 36 65 34 -6 0 -39 -11 -74 -24z"/>
<path d="M2535 3790 c27 -12 43 -12 25 0 -8 5 -22 9 -30 9 -10 0 -8 -3 5 -9z"/>
<path d="M2595 3770 c27 -12 43 -12 25 0 -8 5 -22 9 -30 9 -10 0 -8 -3 5 -9z"/>
<path d="M2650 3750 c8 -5 20 -10 25 -10 6 0 3 5 -5 10 -8 5 -19 10 -25 10 -5
0 -3 -5 5 -10z"/>
<path d="M1452 3729 c-18 -3 -36 -9 -39 -12 -6 -6 69 3 76 9 10 9 -6 10 -37 3z"/>
<path d="M2700 3730 c8 -5 20 -10 25 -10 6 0 3 5 -5 10 -8 5 -19 10 -25 10 -5
0 -3 -5 5 -10z"/>
<path d="M2741 3716 c2 -2 15 -9 29 -15 24 -11 24 -11 6 3 -16 13 -49 24 -35
12z"/>
<path d="M1345 3690 c-3 -6 1 -7 9 -4 18 7 21 14 7 14 -6 0 -13 -4 -16 -10z"/>
<path d="M1273 3654 c-24 -14 -43 -27 -43 -29 0 -6 34 7 40 15 3 4 19 14 35
23 17 9 26 16 20 17 -5 0 -29 -12 -52 -26z"/>
<path d="M2820 3676 c0 -3 14 -12 30 -21 17 -9 30 -13 30 -11 0 3 -13 12 -30
21 -16 9 -30 13 -30 11z"/>
<path d="M2895 3633 c6 -6 46 -34 90 -64 44 -30 129 -101 190 -159 60 -58 101
-94 91 -80 -41 52 -175 174 -266 241 -52 38 -126 82 -105 62z"/>
<path d="M1170 3593 c-14 -9 -35 -25 -47 -36 -12 -10 -26 -16 -33 -12 -6 3 -9
3 -8 -2 2 -5 -24 -35 -57 -67 l-60 -58 55 47 c30 26 83 68 118 92 34 25 62 47
62 49 0 6 -2 5 -30 -13z"/>
<path d="M900 3357 c-59 -65 -140 -166 -140 -175 0 -7 4 -2 55 63 21 28 63 76
94 107 30 32 53 59 50 61 -2 2 -29 -23 -59 -56z"/>
<path d="M3358 3201 c31 -44 63 -87 70 -98 10 -14 10 -13 0 8 -19 38 -112 168
-120 169 -4 0 18 -36 50 -79z"/>
<path d="M790 3150 c-24 -22 -30 -36 -30 -69 0 -50 18 -61 52 -32 12 11 33 29
46 40 26 22 26 31 4 47 -8 6 -12 16 -9 21 4 6 -2 13 -13 16 -13 3 -30 -5 -50
-23z m24 -16 c17 -16 22 -39 7 -30 -5 3 -14 -1 -21 -9 -18 -21 -33 -19 -21 4
6 10 8 21 5 24 -6 5 3 27 11 27 2 0 11 -7 19 -16z"/>
<path d="M3235 3170 c-3 -5 2 -21 11 -35 11 -17 25 -25 46 -25 26 0 28 -2 18
-15 -17 -20 -3 -40 18 -23 14 11 15 10 9 -6 -6 -16 -5 -17 8 -6 26 21 17 110
-11 110 -8 0 -11 -6 -8 -15 4 -8 4 -15 1 -15 -14 0 -57 24 -57 32 0 11 -27 10
-35 -2z"/>
<path d="M732 3143 c-26 -38 -34 -53 -29 -53 2 0 16 18 31 40 29 45 28 56 -2
13z"/>
<path d="M3456 3048 c8 -15 17 -28 20 -28 2 0 0 9 -6 20 -6 11 -9 24 -6 29 3
4 -1 8 -9 8 -12 0 -12 -5 1 -29z"/>
<path d="M670 3040 c-6 -11 -8 -20 -6 -20 3 0 10 9 16 20 6 11 8 20 6 20 -3 0
-10 -9 -16 -20z"/>
<path d="M616 2937 c-36 -77 -76 -188 -76 -209 1 -7 16 28 34 77 28 77 68 172
83 198 2 4 2 7 -2 7 -3 0 -20 -33 -39 -73z"/>
<path d="M3500 2961 c0 -6 4 -13 10 -16 6 -3 7 1 4 9 -7 18 -14 21 -14 7z"/>
<path d="M3520 2925 c0 -5 5 -17 10 -25 5 -8 10 -10 10 -5 0 6 -5 17 -10 25
-5 8 -10 11 -10 5z"/>
<path d="M3557 2829 c4 -13 8 -18 11 -10 2 7 -1 18 -6 23 -8 8 -9 4 -5 -13z"/>
<path d="M522 2673 c-7 -22 -12 -49 -11 -59 0 -11 7 4 15 31 16 60 13 85 -4
28z"/>
<path d="M1936 2665 c-73 -26 -100 -45 -122 -87 -18 -35 -18 -105 0 -140 11
-20 11 -28 3 -28 -19 0 37 -50 62 -55 13 -2 34 -11 47 -20 13 -8 32 -15 42
-15 10 0 24 -6 30 -12 10 -10 17 -10 32 0 11 6 28 12 39 12 10 0 30 9 44 20
14 11 33 20 44 20 10 1 31 11 47 25 28 22 29 27 27 97 -1 40 -7 78 -13 85 -6
7 -18 28 -28 46 -23 44 -84 77 -140 77 -25 0 -76 -11 -114 -25z"/>
<path d="M3611 2654 c0 -11 3 -14 6 -6 3 7 2 16 -1 19 -3 4 -6 -2 -5 -13z"/>
<path d="M3622 2610 c0 -14 2 -19 5 -12 2 6 2 18 0 25 -3 6 -5 1 -5 -13z"/>
<path d="M496 2559 c-3 -17 -5 -43 -5 -58 1 -14 5 -2 10 28 10 58 6 83 -5 30z"/>
<path d="M3631 2564 c0 -11 3 -14 6 -6 3 7 2 16 -1 19 -3 4 -6 -2 -5 -13z"/>
<path d="M3642 2515 c0 -16 2 -22 5 -12 2 9 2 23 0 30 -3 6 -5 -1 -5 -18z"/>
<path d="M3653 2435 c0 -22 2 -30 4 -17 2 12 2 30 0 40 -3 9 -5 -1 -4 -23z"/>
<path d="M475 2363 c-7 -89 8 -350 21 -363 3 -2 2 36 -3 85 -4 50 -7 154 -6
233 1 78 0 142 -2 142 -2 0 -6 -44 -10 -97z"/>
<path d="M3664 2265 c0 -55 1 -76 3 -47 2 29 2 74 0 100 -2 26 -3 2 -3 -53z"/>
<path d="M940 2270 c8 -5 36 -10 61 -10 96 0 279 -40 348 -76 29 -16 71 -19
71 -5 0 13 -48 42 -52 32 -2 -5 -41 3 -88 19 -114 38 -386 70 -340 40z"/>
<path d="M2697 2219 c-9 -5 -22 -7 -29 -3 -6 4 -8 3 -4 -4 3 -6 -3 -13 -14
-17 -22 -7 -28 -25 -7 -24 17 1 54 17 42 19 -5 0 1 9 15 20 27 21 26 26 -3 9z"/>
<path d="M3653 2100 c0 -25 2 -35 4 -22 2 12 2 32 0 45 -2 12 -4 2 -4 -23z"/>
<path d="M933 2068 c-29 -6 -53 -14 -53 -17 0 -3 80 -7 178 -7 97 -1 205 -5
240 -9 65 -7 82 4 40 26 -29 15 -337 21 -405 7z"/>
<path d="M2750 2068 c-79 -22 -65 -44 18 -28 44 9 59 16 55 26 -6 16 -23 16
-73 2z"/>
<path d="M3642 2025 c0 -16 2 -22 5 -12 2 9 2 23 0 30 -3 6 -5 -1 -5 -18z"/>
<path d="M501 1980 c0 -8 6 -37 13 -65 8 -27 15 -43 15 -35 0 8 -6 38 -13 65
-8 28 -15 43 -15 35z"/>
<path d="M3626 1954 c-4 -20 -5 -38 -2 -41 2 -3 8 11 12 31 3 21 4 39 1 42 -2
3 -8 -11 -11 -32z"/>
<path d="M1223 1913 c3 -5 -31 -14 -76 -21 -93 -15 -243 -57 -252 -72 -9 -14
2 -13 107 14 96 25 223 42 214 28 -2 -4 20 -5 50 -4 l54 4 -17 -45 c-14 -38
-19 -43 -30 -31 -14 13 -33 19 -33 10 0 -10 97 -125 126 -149 42 -36 203 -77
298 -77 89 0 231 29 316 64 86 35 143 28 206 -27 13 -11 50 -29 82 -39 70 -23
192 -18 296 12 66 18 136 56 136 73 0 4 -17 15 -37 24 -21 9 -92 42 -158 73
-66 31 -142 64 -170 73 -193 59 -231 73 -241 84 -17 19 -34 16 -34 -7 0 -13
-5 -18 -15 -14 -16 7 -20 -21 -16 -107 1 -25 -4 -62 -12 -81 -12 -29 -23 -37
-73 -54 -33 -10 -69 -18 -81 -16 -13 1 -23 -2 -23 -8 0 -5 -10 -10 -22 -10
-12 0 -42 -8 -66 -17 -41 -15 -45 -15 -53 0 -5 9 -16 14 -24 11 -10 -4 -15 0
-15 15 0 15 6 21 23 21 13 0 28 5 35 12 9 9 12 8 12 -6 0 -16 3 -15 30 4 16
12 33 32 36 46 3 13 13 24 21 24 8 0 13 6 10 13 -4 13 -21 14 -49 2 -13 -5
-15 -2 -11 13 4 16 -2 21 -34 27 -21 4 -44 11 -50 17 -7 6 -31 10 -52 10 -22
0 -44 5 -50 12 -8 9 -32 13 -74 11 -41 -1 -76 4 -104 16 -24 10 -43 14 -43 9
0 -6 7 -10 15 -10 8 0 15 -5 15 -10 0 -7 -6 -7 -20 0 -23 13 -27 40 -5 40 23
0 18 19 -8 29 -36 14 -141 25 -134 14z"/>
<path d="M2751 1891 c-11 -7 -10 -10 5 -15 29 -8 103 -11 110 -3 4 4 2 7 -5 7
-7 0 -9 5 -6 10 8 12 -84 13 -104 1z"/>
<path d="M3611 1884 c0 -11 3 -14 6 -6 3 7 2 16 -1 19 -3 4 -6 -2 -5 -13z"/>
<path d="M2910 1870 c-13 -9 -13 -10 0 -9 8 0 24 4 35 9 l20 9 -20 0 c-11 0
-27 -4 -35 -9z"/>
<path d="M531 1844 c0 -11 3 -14 6 -6 3 7 2 16 -1 19 -3 4 -6 -2 -5 -13z"/>
<path d="M1283 1843 c-18 -7 -16 -23 2 -23 8 0 15 7 15 15 0 8 -1 15 -2 14 -2
0 -9 -3 -15 -6z"/>
<path d="M3587 1798 c-9 -29 -15 -54 -13 -56 2 -2 12 20 21 48 9 28 15 53 13
55 -2 3 -12 -19 -21 -47z"/>
<path d="M541 1805 c0 -21 37 -107 38 -90 1 6 -8 33 -19 60 -10 28 -19 41 -19
30z"/>
<path d="M580 1698 c-1 -16 74 -178 100 -218 9 -14 42 -63 73 -110 74 -114
171 -222 291 -325 87 -75 116 -95 116 -81 0 2 -26 23 -57 47 -192 143 -358
351 -474 594 -27 55 -48 97 -49 93z"/>
<path d="M3542 1673 c-5 -16 -14 -37 -18 -48 -7 -18 -6 -18 7 -5 14 13 34 80
25 80 -2 0 -9 -12 -14 -27z"/>
<path d="M3507 1593 c-4 -3 -7 -11 -7 -17 0 -6 5 -5 12 2 6 6 9 14 7 17 -3 3
-9 2 -12 -2z"/>
<path d="M3446 1473 c-6 -14 -5 -15 5 -6 7 7 10 15 7 18 -3 3 -9 -2 -12 -12z"/>
<path d="M3383 1375 c-29 -41 -48 -75 -43 -75 8 0 34 36 55 75 6 11 19 32 29
48 10 15 16 27 14 27 -2 0 -27 -34 -55 -75z"/>
<path d="M3210 1170 c-127 -130 -236 -215 -368 -287 -260 -142 -576 -215 -857
-198 -60 3 -107 3 -103 0 13 -13 225 -17 330 -6 301 30 545 121 801 300 42 29
77 56 77 60 0 3 34 33 75 65 41 32 75 62 75 65 0 4 20 31 45 60 39 46 52 64
43 60 -2 0 -55 -54 -118 -119z"/>
<path d="M1220 918 c60 -54 402 -200 465 -197 11 0 16 2 10 4 -5 2 -62 20
-125 40 -112 37 -211 81 -321 145 -43 25 -49 27 -29 8z"/>
<path d="M1755 706 c28 -8 66 -14 85 -14 l35 1 -40 7 c-22 4 -60 10 -85 13
l-45 6 50 -13z"/>
</g>
</svg>
